<?xml version="1.0" encoding="UTF-8"?>
<svg xmlns="http://www.w3.org/2000/svg" version="1.1" viewBox="0 0 28 28">
  <defs>
    <style>
      .cls-1 {
        fill: #fff;
      }
    </style>
  </defs>
  <!-- Generator: Adobe Illustrator 28.6.0, SVG Export Plug-In . SVG Version: 1.2.0 Build 709)  -->
  <g>
    <g id="Layer_1">
      <path class="cls-1" d="M15.6,10.8h.8c.2,0,.4,0,.6-.2.1-.1.2-.4.2-.6s0-.4-.2-.6c-.1-.2-.4-.2-.6-.2h-.8c-.2,0-.4,0-.6.2-.1.2-.2.4-.2.6s0,.4.2.6.4.2.6.2ZM15.6,14h.8c.2,0,.4,0,.6-.2.1-.2.2-.4.2-.6s0-.4-.2-.6c-.1-.2-.4-.2-.6-.2h-.8c-.2,0-.4,0-.6.2s-.2.4-.2.6,0,.4.2.6c.2.1.4.2.6.2ZM11.6,10.8h.8c.2,0,.4,0,.6-.2s.2-.4.2-.6,0-.4-.2-.6c-.2-.2-.4-.2-.6-.2h-.8c-.2,0-.4,0-.6.2-.1.2-.2.4-.2.6s0,.4.2.6.4.2.6.2ZM11.6,14h.8c.2,0,.4,0,.6-.2.1-.2.2-.4.2-.6s0-.4-.2-.6-.4-.2-.6-.2h-.8c-.2,0-.4,0-.6.2s-.2.4-.2.6,0,.4.2.6c.2.1.4.2.6.2ZM21.2,20.4h-.8V6.8c0-.2,0-.4-.2-.6-.2-.2-.4-.2-.6-.2h-11.2c-.2,0-.4,0-.6.2-.2.2-.2.4-.2.6v13.6h-.8c-.2,0-.4,0-.6.2-.2.1-.2.4-.2.6s0,.4.2.6c.2.2.4.2.6.2h14.4c.2,0,.4,0,.6-.2.2-.1.2-.4.2-.6s0-.4-.2-.6c-.1-.1-.4-.2-.6-.2ZM14.8,20.4h-1.6v-3.2h1.6v3.2ZM18.8,20.4h-2.4v-4c0-.2,0-.4-.2-.6-.2-.1-.4-.2-.6-.2h-3.2c-.2,0-.4,0-.6.2s-.2.4-.2.6v4h-2.4V7.6h9.6v12.8Z"/>
    </g>
  </g>
</svg>