<?xml version="1.0" encoding="UTF-8"?>
<svg xmlns="http://www.w3.org/2000/svg" version="1.1" viewBox="0 0 28 28">
  <defs>
    <style>
      .cls-1 {
        fill: #fff;
      }
    </style>
  </defs>
  <!-- Generator: Adobe Illustrator 28.6.0, SVG Export Plug-In . SVG Version: 1.2.0 Build 709)  -->
  <g>
    <g id="Layer_1">
      <path class="cls-1" d="M20,11.6c0,0,0-.1,0-.2h0c0-.2,0-.2-.1-.3l-4.5-4.8c0,0-.1-.1-.2-.2,0,0,0,0,0,0,0,0-.2,0-.2,0h-4.5c-.6,0-1.2.3-1.6.7-.4.5-.7,1.1-.7,1.7v11.2c0,.6.2,1.2.7,1.7.4.5,1,.7,1.6.7h7.5c.6,0,1.2-.3,1.6-.7.4-.5.7-1.1.7-1.7v-8h0ZM15.5,8.7l1.9,2.1h-1.2c-.2,0-.4,0-.5-.2-.1-.1-.2-.4-.2-.6v-1.3ZM18.5,19.6c0,.2,0,.4-.2.6-.1.1-.3.2-.5.2h-7.5c-.2,0-.4,0-.5-.2-.1-.2-.2-.4-.2-.6v-11.2c0-.2,0-.4.2-.6.1-.2.3-.2.5-.2h3.8v2.4c0,.6.2,1.2.7,1.7.4.5,1,.7,1.6.7h2.2v7.2ZM15.7,14.2l-2.5,2.6-1-1c-.1-.2-.3-.2-.5-.2s-.4,0-.5.2c-.1.2-.2.4-.2.6s0,.4.2.6l1.5,1.6c0,0,.2.1.2.2,0,0,.2,0,.3,0s.2,0,.3,0c0,0,.2-.1.2-.2l3-3.2c.1-.2.2-.4.2-.6s0-.4-.2-.6c-.1-.2-.3-.2-.5-.2s-.4,0-.5.2Z"/>
    </g>
  </g>
</svg>