<?xml version="1.0" encoding="UTF-8"?>
<svg xmlns="http://www.w3.org/2000/svg" version="1.1" viewBox="0 0 28 28">
  <defs>
    <style>
      .cls-1 {
        fill: #fff;
      }
    </style>
  </defs>
  <!-- Generator: Adobe Illustrator 28.6.0, SVG Export Plug-In . SVG Version: 1.2.0 Build 709)  -->
  <g>
    <g id="Layer_1">
      <path class="cls-1" d="M14,20.4h-5.6c-.2,0-.4,0-.6-.2-.1-.1-.2-.4-.2-.6v-11.2c0-.2,0-.4.2-.6.1-.1.4-.2.6-.2h4v2.4c0,.6.3,1.2.7,1.7.4.4,1.1.7,1.7.7h2.4v.8c0,.2,0,.4.2.6s.4.2.6.2.4,0,.6-.2c.1-.1.2-.4.2-.6v-1.6h0c0-.1,0-.2,0-.3h0c0-.2,0-.2-.2-.3l-4.8-4.8c0,0-.1-.1-.2-.2,0,0,0,0,0,0,0,0-.2,0-.3,0h-4.8c-.6,0-1.2.3-1.7.7-.4.4-.7,1.1-.7,1.7v11.2c0,.6.3,1.2.7,1.7.4.4,1.1.7,1.7.7h5.6c.2,0,.4,0,.6-.2.1-.2.2-.4.2-.6s0-.4-.2-.6-.4-.2-.6-.2ZM14,8.7l2.1,2.1h-1.3c-.2,0-.4,0-.6-.2-.2-.1-.2-.4-.2-.6v-1.3ZM21.8,20.6l-.9-.9c.3-.5.4-1.1.3-1.7,0-.6-.3-1.2-.8-1.6-.4-.4-.9-.7-1.4-.8-.5-.1-1.1,0-1.6.2-.5.2-1,.6-1.3,1.1-.3.5-.5,1-.5,1.6,0,.5.1,1,.4,1.4.2.4.6.8,1,1,.4.2.9.4,1.4.4.5,0,1-.1,1.4-.3l.9.9c0,0,.2.1.3.2,0,0,.2,0,.3,0s.2,0,.3,0c0,0,.2-.1.3-.2,0,0,.1-.2.2-.3,0,0,0-.2,0-.3s0-.2,0-.3c0,0-.1-.2-.2-.3ZM19.2,19.2c-.2.2-.5.3-.8.3s-.6-.1-.8-.3c-.2-.2-.3-.5-.3-.8,0-.2,0-.3,0-.5,0-.1.1-.3.3-.4.2-.2.5-.3.8-.3.2,0,.3,0,.5,0,.2,0,.3.1.4.3.1.1.2.2.3.4,0,.1,0,.3,0,.5,0,.3-.1.6-.4.8Z"/>
    </g>
  </g>
</svg>