<?xml version="1.0" encoding="UTF-8"?>
<svg xmlns="http://www.w3.org/2000/svg" version="1.1" viewBox="0 0 28 28">
  <defs>
    <style>
      .cls-1 {
        fill: #fff;
      }
    </style>
  </defs>
  <!-- Generator: Adobe Illustrator 28.6.0, SVG Export Plug-In . SVG Version: 1.2.0 Build 709)  -->
  <g>
    <g id="Layer_1">
      <path class="cls-1" d="M15,14.2c.4-.4.8-.9,1-1.4.2-.5.4-1.1.4-1.7,0-1.1-.4-2.1-1.2-2.9s-1.8-1.2-2.8-1.2-2.1.4-2.8,1.2c-.8.8-1.2,1.8-1.2,2.9s.1,1.2.4,1.7c.2.5.6,1,1,1.4-1.1.5-2.1,1.4-2.7,2.4s-1,2.3-1,3.6c0,.2,0,.4.2.6.2.2.4.2.6.2s.4,0,.6-.2c.2-.2.2-.4.2-.6,0-1.3.5-2.6,1.4-3.5.9-.9,2.1-1.4,3.4-1.4s2.5.5,3.4,1.4c.9.9,1.4,2.2,1.4,3.5s0,.4.2.6.4.2.6.2.4,0,.6-.2c.1-.2.2-.4.2-.6,0-1.3-.4-2.5-1-3.6-.7-1.1-1.6-1.9-2.7-2.4ZM12.4,13.6c-.5,0-.9-.1-1.3-.4-.4-.3-.7-.7-.9-1.1-.2-.5-.2-.9-.1-1.4,0-.5.3-.9.7-1.3s.8-.6,1.2-.7c.5,0,.9,0,1.4.1.4.2.8.5,1.1.9.3.4.4.9.4,1.4s-.3,1.3-.7,1.7c-.4.5-1.1.7-1.7.7ZM21.8,11.6c0,0-.2-.1-.3-.2,0,0-.2,0-.3,0s-.2,0-.3,0c0,0-.2.1-.3.2l-1.6,1.6-.5-.5c0,0-.2-.1-.3-.2,0,0-.2,0-.3,0s-.2,0-.3,0c0,0-.2.1-.3.2-.1.2-.2.4-.2.6s0,.4.2.6l1.1,1.1c.1.2.4.2.6.2s.4,0,.6-.2l2.1-2.2c0,0,.1-.2.2-.3,0-.1,0-.2,0-.3s0-.2,0-.3c0-.1-.1-.2-.2-.3Z"/>
    </g>
  </g>
</svg>