<?xml version="1.0" encoding="UTF-8"?>
<svg xmlns="http://www.w3.org/2000/svg" version="1.1" viewBox="0 0 28 28">
  <defs>
    <style>
      .cls-1 {
        fill: #fff;
      }
    </style>
  </defs>
  <!-- Generator: Adobe Illustrator 28.6.0, SVG Export Plug-In . SVG Version: 1.2.0 Build 709)  -->
  <g>
    <g id="Layer_1">
      <path class="cls-1" d="M14.8,15.6h-3c-.2,0-.4,0-.5.2-.1.1-.2.4-.2.6s0,.4.2.6c.1.1.3.2.5.2h3c.2,0,.4,0,.5-.2.1-.1.2-.4.2-.6s0-.4-.2-.6c-.1-.1-.3-.2-.5-.2ZM17.8,7.6h-.9c-.2-.5-.4-.9-.8-1.2-.4-.3-.8-.4-1.3-.4h-1.5c-.5,0-.9.2-1.3.4-.4.3-.7.7-.8,1.2h-.9c-.6,0-1.2.3-1.6.7-.4.5-.7,1.1-.7,1.7v9.6c0,.6.2,1.2.7,1.7.4.5,1,.7,1.6.7h7.5c.6,0,1.2-.3,1.6-.7.4-.5.7-1.1.7-1.7v-9.6c0-.6-.2-1.2-.7-1.7-.4-.5-1-.7-1.6-.7ZM12.5,8.4c0-.2,0-.4.2-.6.1-.2.3-.2.5-.2h1.5c.2,0,.4,0,.5.2.1.2.2.4.2.6v.8h-3v-.8ZM18.5,19.6c0,.2,0,.4-.2.6-.1.1-.3.2-.5.2h-7.5c-.2,0-.4,0-.5-.2-.1-.2-.2-.4-.2-.6v-9.6c0-.2,0-.4.2-.6.1-.2.3-.2.5-.2h.8v.8c0,.2,0,.4.2.6.1.2.3.2.5.2h4.5c.2,0,.4,0,.5-.2.1-.1.2-.4.2-.6v-.8h.8c.2,0,.4,0,.5.2.1.2.2.4.2.6v9.6ZM16.2,12.4h-4.5c-.2,0-.4,0-.5.2-.1.1-.2.4-.2.6s0,.4.2.6c.1.1.3.2.5.2h4.5c.2,0,.4,0,.5-.2.1-.2.2-.4.2-.6s0-.4-.2-.6c-.1-.2-.3-.2-.5-.2Z"/>
    </g>
  </g>
</svg>