<?xml version="1.0" encoding="UTF-8"?>
<svg xmlns="http://www.w3.org/2000/svg" version="1.1" viewBox="0 0 28 28">
  <defs>
    <style>
      .cls-1 {
        fill: #fff;
      }
    </style>
  </defs>
  <!-- Generator: Adobe Illustrator 28.6.0, SVG Export Plug-In . SVG Version: 1.2.0 Build 709)  -->
  <g>
    <g id="Layer_1">
      <path class="cls-1" d="M10,12.4c-.2,0-.3,0-.4.1-.1,0-.2.2-.3.4,0,.1,0,.3,0,.5,0,.2.1.3.2.4.1.1.3.2.4.2.2,0,.3,0,.5,0,.1,0,.3-.2.4-.3,0-.1.1-.3.1-.4s0-.4-.2-.6c-.1-.2-.4-.2-.6-.2ZM19.6,9.2h-.8v-2.4c0-.2,0-.4-.2-.6-.1-.2-.4-.2-.6-.2h-8c-.2,0-.4,0-.6.2-.2.2-.2.4-.2.6v2.4h-.8c-.6,0-1.2.3-1.7.7-.5.5-.7,1.1-.7,1.7v4.8c0,.6.3,1.2.7,1.7.5.5,1.1.7,1.7.7h.8v2.4c0,.2,0,.4.2.6.2.2.4.2.6.2h8c.2,0,.4,0,.6-.2.1-.1.2-.4.2-.6v-2.4h.8c.6,0,1.2-.3,1.7-.7.5-.5.7-1.1.7-1.7v-4.8c0-.6-.3-1.2-.7-1.7-.5-.5-1.1-.7-1.7-.7ZM10.8,7.6h6.4v1.6h-6.4v-1.6ZM17.2,20.4h-6.4v-3.2h6.4v3.2ZM20.4,16.4c0,.2,0,.4-.2.6-.2.1-.4.2-.6.2h-.8v-.8c0-.2,0-.4-.2-.6s-.4-.2-.6-.2h-8c-.2,0-.4,0-.6.2-.2.1-.2.4-.2.6v.8h-.8c-.2,0-.4,0-.6-.2-.2-.1-.2-.4-.2-.6v-4.8c0-.2,0-.4.2-.6.2-.1.4-.2.6-.2h11.2c.2,0,.4,0,.6.2.1.2.2.4.2.6v4.8Z"/>
    </g>
  </g>
</svg>