<?xml version="1.0" encoding="UTF-8"?>
<svg xmlns="http://www.w3.org/2000/svg" version="1.1" viewBox="0 0 28 28">
  <defs>
    <style>
      .cls-1 {
        fill: #fff;
      }
    </style>
  </defs>
  <!-- Generator: Adobe Illustrator 28.6.0, SVG Export Plug-In . SVG Version: 1.2.0 Build 709)  -->
  <g>
    <g id="Layer_1">
      <path class="cls-1" d="M13.2,20.4h-3.9c-.2,0-.4,0-.5-.2-.1-.2-.2-.4-.2-.6v-11.2c0-.2,0-.4.2-.6.1-.2.3-.2.5-.2h4.7v3.2c0,.2,0,.4.2.6.1.2.3.2.5.2h3.9c.2,0,.3,0,.4-.1.1,0,.2-.2.3-.4,0-.1,0-.3,0-.5,0-.2-.1-.3-.2-.4l-3.9-4c0,0-.1-.1-.2-.2h0c0,0-.1,0-.2,0h-5.5c-.6,0-1.2.3-1.6.7-.4.5-.7,1.1-.7,1.7v11.2c0,.6.2,1.2.7,1.7.4.5,1,.7,1.6.7h3.9c.2,0,.4,0,.5-.2.1-.1.2-.4.2-.6s0-.4-.2-.6c-.1-.1-.3-.2-.5-.2ZM15.5,8.7l1.2,1.3h-1.2v-1.3Z"/>
      <path class="cls-1" d="M13.2,17.4c-.2,0-.4,0-.6-.2,0,0,0-.1-.1-.2,0,0,0-.1,0-.2,0-.1,0-.3.1-.4,0,0,.2-.1.3-.2.1,0,.2,0,.3,0h0l-.4-2.1c0,0,0-.2,0-.3,0,0,0-.2,0-.3,0,0,0-.2.2-.2,0,0,.2-.1.3-.1.2,0,.4,0,.6,0,0,0,.2.1.2.2,0,0,0,.2,0,.3l.4,2.5h.8l.5-2.5c0-.1.1-.2.2-.3.2-.1.4-.2.6-.1.2,0,.4,0,.5.1,0,0,.2.2.2.3l.5,2.5h.8l.4-2.5c0,0,0-.2,0-.3s.1-.2.2-.2c0,0,.2,0,.3,0s.2,0,.3,0c.1,0,.2,0,.3.1,0,0,.1.1.2.2,0,0,0,.2,0,.3,0,0,0,.2,0,.3l-.4,2.1h.1c.1,0,.2,0,.3,0,0,0,.2,0,.3.2.1.1.2.3.2.4,0,.1,0,.3-.1.4,0,0-.2.1-.3.1,0,0-.2,0-.3,0h-.4l-.5,2.3c0,0,0,.2-.1.3,0,0,0,.2-.2.2,0,0-.2.1-.3.1-.1,0-.3,0-.4,0-.2,0-.5,0-.7-.2-.2-.1-.3-.3-.3-.5l-.4-2.3h-.5l-.4,2.3c0,.2-.2.3-.3.5-.2.1-.5.2-.7.2-.1,0-.3,0-.4,0,0,0-.2,0-.3-.1,0,0-.1-.1-.2-.2,0,0,0-.2-.1-.3l-.5-2.3h-.4ZM15,18.4l.2-1h-.4l.2,1ZM16.6,16.2h.2v-.9c0,0-.2.9-.2.9ZM18.3,18.4l.2-1h-.4l.2,1Z"/>
    </g>
  </g>
</svg>