<?xml version="1.0" encoding="UTF-8"?>
<svg xmlns="http://www.w3.org/2000/svg" version="1.1" viewBox="0 0 28 28">
  <defs>
    <style>
      .cls-1 {
        fill: #fff;
      }
    </style>
  </defs>
  <!-- Generator: Adobe Illustrator 28.6.0, SVG Export Plug-In . SVG Version: 1.2.0 Build 709)  -->
  <g>
    <g id="Layer_1">
      <path class="cls-1" d="M14.6,17.8s0,0-.1,0c0,0,0,0-.1,0,0,0,0,0-.1,0-.1,0-.3,0-.4,0,0,0-.2,0-.3.2,0,0-.1.1-.2.2,0,0,0,.2,0,.3,0,0,0,.2,0,.3,0,0,.1.2.2.2,0,0,.2.1.3.2s.2,0,.3,0c.1,0,.2,0,.3,0,0,0,.2,0,.3-.2,0,0,.1-.1.2-.2,0,0,0-.2,0-.3,0,0,0-.2,0-.3,0,0,0-.2-.2-.2ZM11.3,14.9s0,0-.1,0c0,0,0,0-.1,0,0,0-.2,0-.3,0h-.1s-.1.1-.1.1h-.1c-.1.2-.2.4-.2.6,0,0,0,.2,0,.3,0,0,0,.2.2.2,0,0,.2.1.3.2.1,0,.2,0,.4,0,.1,0,.2,0,.4-.1.1,0,.2-.2.3-.3s0-.2,0-.3c0-.2,0-.4-.2-.5h-.1ZM11.4,17.8c0,0-.2-.1-.3-.2-.1,0-.3,0-.5,0h-.1c0,0,0,0-.1.1,0,0,0,0-.1,0,0,0-.1.2-.2.2,0,0,0,.2,0,.3s0,.2,0,.3c0,0,0,.2.2.2,0,0,.2.1.3.2,0,0,.2,0,.3,0,.1,0,.2,0,.3,0,0,0,.2,0,.3-.2,0,0,.1-.2.2-.2,0,0,0-.2,0-.3s0-.2,0-.3c0,0,0-.2-.2-.2ZM13.7,14.8c0,0-.2,0-.3.2-.1.1-.2.3-.2.5,0,.1,0,.2,0,.3,0,.1.1.2.3.3.1,0,.2.1.4.1.1,0,.3,0,.4,0,0,0,.2,0,.3-.2,0,0,.1-.1.2-.2,0,0,0-.2,0-.3,0-.2,0-.4-.2-.5-.1-.1-.2-.2-.4-.2s-.3,0-.4,0ZM17.7,17.8c0,0-.2-.1-.3-.2-.1,0-.3,0-.4,0-.2,0-.3,0-.4.2,0,0-.1.2-.2.2,0,0,0,.2,0,.3s0,.2,0,.3c0,0,0,.2.2.2,0,0,.2.1.3.2,0,0,.2,0,.3,0,.1,0,.2,0,.3,0,0,0,.2,0,.3-.2.1-.1.2-.2.2-.4,0-.1,0-.3,0-.4,0,0,0-.2-.2-.2ZM17.1,8.9h-6.2c-.2,0-.4,0-.6.2-.1.1-.2.3-.2.5v2.9c0,.2,0,.4.2.5.1.1.3.2.6.2h6.2c.2,0,.4,0,.6-.2.1-.1.2-.3.2-.5v-2.9c0-.2,0-.4-.2-.5-.1-.1-.3-.2-.6-.2ZM16.3,11.8h-4.7v-1.5h4.7v1.5ZM18.7,6h-9.3c-.6,0-1.2.2-1.6.6-.4.4-.7,1-.7,1.5v11.6c0,.6.2,1.1.7,1.5.4.4,1,.6,1.6.6h9.3c.6,0,1.2-.2,1.6-.6.4-.4.7-1,.7-1.5v-11.6c0-.6-.2-1.1-.7-1.5-.4-.4-1-.6-1.6-.6ZM19.4,19.8c0,.2,0,.4-.2.5-.1.1-.3.2-.5.2h-9.3c-.2,0-.4,0-.5-.2-.1-.1-.2-.3-.2-.5v-11.6c0-.2,0-.4.2-.5.1-.1.3-.2.5-.2h9.3c.2,0,.4,0,.5.2.1.1.2.3.2.5v11.6ZM17.5,14.9s0,0-.1,0c0,0,0,0-.1,0,0,0-.2,0-.3,0h-.1s-.1.1-.1.1h-.1c-.1.2-.2.4-.2.6,0,.1,0,.2,0,.3s.1.2.3.3c.1,0,.2.1.4.1.1,0,.3,0,.4,0,0,0,.2,0,.3-.2,0,0,.1-.1.2-.2,0,0,0-.2,0-.3,0-.2,0-.4-.2-.5h-.1Z"/>
    </g>
  </g>
</svg>