<svg width="8" height="10" viewBox="0 0 8 10" fill="none" xmlns="http://www.w3.org/2000/svg">
<path d="M4.70827 0.297074C4.61328 0.202181 4.50128 0.127796 4.37868 0.0781878C4.13552 -0.0260626 3.86278 -0.0260626 3.61962 0.0781878C3.49702 0.127796 3.38501 0.202181 3.29002 0.297074L0.293729 3.42402C0.105658 3.62029 0 3.8865 0 4.16407C0 4.44164 0.105658 4.70784 0.293729 4.90411C0.4818 5.10038 0.736879 5.21065 1.00285 5.21065C1.26882 5.21065 1.5239 5.10038 1.71198 4.90411L3.00038 3.5491V8.95768C3.00038 9.23412 3.10561 9.49924 3.29291 9.69471C3.48022 9.89018 3.73426 10 3.99915 10C4.26404 10 4.51808 9.89018 4.70538 9.69471C4.89269 9.49924 4.99791 9.23412 4.99791 8.95768V3.5491L6.28632 4.90411C6.37917 5.00181 6.48963 5.07935 6.61134 5.13227C6.73305 5.18518 6.86359 5.21243 6.99544 5.21243C7.12729 5.21243 7.25784 5.18518 7.37954 5.13227C7.50125 5.07935 7.61172 5.00181 7.70457 4.90411C7.79818 4.80722 7.87248 4.69193 7.92319 4.56492C7.97389 4.4379 8 4.30167 8 4.16407C8 4.02647 7.97389 3.89023 7.92319 3.76322C7.87248 3.6362 7.79818 3.52092 7.70457 3.42402L4.70827 0.297074Z" fill="white"/>
</svg>
