<?xml version="1.0" encoding="UTF-8"?>
<svg xmlns="http://www.w3.org/2000/svg" version="1.1" viewBox="0 0 48 48">
  <defs>
    <style>
      .cls-1 {
        fill: #fff;
      }
    </style>
  </defs>
  <!-- Generator: Adobe Illustrator 28.6.0, SVG Export Plug-In . SVG Version: 1.2.0 Build 709)  -->
  <g>
    <g id="Layer_1">
      <path class="cls-1" d="M29.3,15.7c-.9-.7-1.9-1.2-3-1.4-1.1-.3-2.2-.3-3.3,0-1.5.3-2.8,1-3.8,2-1,1-1.8,2.3-2,3.7-.2,1.1-.2,2.2.1,3.2.3,1,.8,2,1.5,2.8.7.7,1,1.6,1.1,2.6v2.7c0,.7.3,1.4.8,1.9.5.5,1.2.8,2,.8h3.8c.7,0,1.5-.3,2-.8.5-.5.8-1.2.8-1.9v-2.6c0-1.1.4-2.1,1.1-2.9,1.2-1.5,1.8-3.4,1.6-5.3-.2-1.9-1.2-3.7-2.7-4.9h0ZM27.3,31.3c0,.2,0,.5-.3.6-.2.2-.4.3-.7.3h-3.8c-.2,0-.5,0-.7-.3-.2-.2-.3-.4-.3-.6v-.9h5.6v.9ZM28.9,24.7c-.9,1.1-1.5,2.4-1.6,3.9h-1.9v-2.7c0-.2,0-.5-.3-.6-.2-.2-.4-.3-.7-.3s-.5,0-.7.3c-.2.2-.3.4-.3.6v2.7h-1.9c0-1.4-.6-2.7-1.5-3.8-.6-.7-1-1.6-1.2-2.5-.2-.9,0-1.9.2-2.8.3-.9.9-1.7,1.6-2.3.7-.6,1.6-1,2.6-1.2.8-.2,1.7-.1,2.5,0,.8.2,1.6.6,2.2,1.1.6.5,1.2,1.2,1.5,1.9.4.7.5,1.5.5,2.3,0,1.2-.4,2.5-1.2,3.4Z"/>
    </g>
  </g>
</svg>