<?xml version="1.0" encoding="UTF-8"?>
<svg xmlns="http://www.w3.org/2000/svg" version="1.1" viewBox="0 0 48 48">
  <defs>
    <style>
      .cls-1 {
        fill: #fff;
      }
    </style>
  </defs>
  <!-- Generator: Adobe Illustrator 28.6.0, SVG Export Plug-In . SVG Version: 1.2.0 Build 709)  -->
  <g>
    <g id="Layer_1">
      <path class="cls-1" d="M32.9,29.4l-2.7-4.8c.6-1,.8-2.2.8-3.4,0-1.9-.7-3.7-2-5.1-1.3-1.3-3.1-2.1-4.9-2.1s-3.6.8-4.9,2.1c-1.3,1.3-2,3.2-2,5.1,0,1.2.3,2.4.8,3.4l-2.7,4.8c0,.2-.1.3-.1.5,0,.2,0,.4.1.5,0,.2.2.3.4.4s.3.1.5.1h2.9l1.5,2.5c0,0,.1.2.2.2.2.2.4.3.7.3h.1c.2,0,.3,0,.4-.2s.2-.2.3-.3l1.9-3.4,1.9,3.4c0,.1.2.2.3.3.1,0,.3.1.4.2h.1c.3,0,.5-.1.7-.3,0,0,.1-.1.2-.2l1.5-2.5h2.9c.2,0,.3,0,.5-.1.2,0,.3-.2.4-.4,0-.2.1-.3.1-.5s0-.4-.1-.5ZM21.2,31l-.9-1.5c0-.2-.2-.3-.4-.4-.1,0-.3-.1-.5-.1h-1.7l1.4-2.5c1,1,2.2,1.6,3.6,1.9l-1.5,2.7ZM24,26.3c-1,0-2-.3-2.8-.9-.8-.6-1.5-1.4-1.8-2.3-.4-.9-.5-2-.3-3,.2-1,.7-1.9,1.4-2.6.7-.7,1.6-1.2,2.6-1.4,1-.2,2,0,2.9.3.9.4,1.7,1,2.2,1.9.5.8.8,1.8.8,2.9s-.5,2.7-1.5,3.6c-.9,1-2.2,1.5-3.5,1.5ZM28.5,28.9c-.2,0-.3,0-.5.1-.1,0-.3.2-.4.4l-.9,1.5-1.5-2.7c1.3-.3,2.6-.9,3.6-1.9l1.4,2.5h-1.7Z"/>
    </g>
  </g>
</svg>