<?xml version="1.0" encoding="UTF-8"?>
<svg xmlns="http://www.w3.org/2000/svg" version="1.1" viewBox="0 0 48 48">
  <defs>
    <style>
      .cls-1 {
        fill: #fff;
      }
    </style>
  </defs>
  <!-- Generator: Adobe Illustrator 28.6.0, SVG Export Plug-In . SVG Version: 1.2.0 Build 709)  -->
  <g>
    <g id="Layer_1">
      <path class="cls-1" d="M33.2,24c.5-.5.8-1.3.8-2,0-.8-.3-1.6-.9-2.1-.6-.6-1.3-.9-2.1-.9h-5.2c.2-.5.2-.9.1-1.4,0-.5-.2-.9-.5-1.3-.3-.4-.6-.7-1.1-.9-.4-.2-.9-.3-1.4-.3h-6c-.8,0-1.6.3-2.1.9-.6.6-.9,1.3-.9,2.1,0,.7.3,1.5.8,2-.5.5-.8,1.3-.8,2s.3,1.5.8,2c-.5.5-.8,1.3-.8,2s.3,1.5.8,2c-.5.5-.8,1.3-.8,2,0,.8.3,1.6.9,2.1s1.3.9,2.1.9h14c.6,0,1.1-.2,1.6-.5.5-.3.9-.8,1.1-1.3.2-.5.3-1.1.2-1.7,0-.6-.3-1.1-.7-1.5.5-.5.8-1.3.8-2s-.3-1.5-.8-2ZM23,31h-6c-.3,0-.5-.1-.7-.3s-.3-.4-.3-.7.1-.5.3-.7.4-.3.7-.3h6c.3,0,.5.1.7.3s.3.4.3.7-.1.5-.3.7-.4.3-.7.3ZM23,27h-6c-.3,0-.5-.1-.7-.3s-.3-.4-.3-.7.1-.5.3-.7.4-.3.7-.3h6c.3,0,.5.1.7.3s.3.4.3.7-.1.5-.3.7-.4.3-.7.3ZM23,23h-6c-.3,0-.5-.1-.7-.3s-.3-.4-.3-.7.1-.5.3-.7.4-.3.7-.3h6c.3,0,.5.1.7.3s.3.4.3.7-.1.5-.3.7-.4.3-.7.3ZM23,19h-6c-.3,0-.5-.1-.7-.3s-.3-.4-.3-.7.1-.5.3-.7.4-.3.7-.3h6c.3,0,.5.1.7.3s.3.4.3.7-.1.5-.3.7-.4.3-.7.3ZM31.7,30.7c0,0-.2.2-.3.2-.1,0-.2,0-.4,0h-5.2c.2-.6.2-1.4,0-2h5.2c.3,0,.5.1.7.3s.3.4.3.7c0,.1,0,.3,0,.4,0,.1-.1.2-.2.3ZM31.7,26.7c0,0-.2.2-.3.2-.1,0-.2,0-.4,0h-5.2c.2-.6.2-1.4,0-2h5.2c.3,0,.5.1.7.3s.3.4.3.7c0,.1,0,.3,0,.4,0,.1-.1.2-.2.3ZM31.7,22.7c0,0-.2.2-.3.2-.1,0-.2,0-.4,0h-5.2c.2-.6.2-1.4,0-2h5.2c.3,0,.5.1.7.3s.3.4.3.7c0,.1,0,.3,0,.4,0,.1-.1.2-.2.3Z"/>
    </g>
  </g>
</svg>