<?xml version="1.0" encoding="UTF-8"?>
<svg xmlns="http://www.w3.org/2000/svg" version="1.1" viewBox="0 0 48 48">
  <defs>
    <style>
      .cls-1 {
        fill: #fff;
      }
    </style>
  </defs>
  <!-- Generator: Adobe Illustrator 28.6.0, SVG Export Plug-In . SVG Version: 1.2.0 Build 709)  -->
  <g>
    <g id="Layer_1">
      <path class="cls-1" d="M23,32h-5c-.3,0-.5-.1-.7-.3-.2-.2-.3-.4-.3-.7v-14c0-.3.1-.5.3-.7.2-.2.4-.3.7-.3h6v4c0,.3.1.5.3.7s.4.3.7.3h5c.2,0,.4,0,.6-.2.2-.1.3-.3.4-.4,0-.2,0-.4,0-.6,0-.2-.1-.4-.3-.5l-5-5c0,0-.2-.1-.3-.2h0c0,0-.2,0-.3-.1h-7.1c-.8,0-1.6.3-2.1.9-.6.6-.9,1.3-.9,2.1v14c0,.8.3,1.6.9,2.1.6.6,1.3.9,2.1.9h5c.3,0,.5-.1.7-.3.2-.2.3-.4.3-.7s-.1-.5-.3-.7c-.2-.2-.4-.3-.7-.3ZM26,17.4l1.6,1.6h-1.6v-1.6Z"/>
      <path class="cls-1" d="M22.9,28.2c-.3,0-.5,0-.7-.2,0,0-.1-.1-.2-.2,0,0,0-.2,0-.3,0-.2,0-.3.2-.5.1,0,.2-.2.4-.2.1,0,.3,0,.4,0h.1l-.6-2.7c0-.1,0-.2,0-.3,0-.1,0-.2,0-.3,0-.1.1-.2.2-.3.1,0,.2-.1.4-.2.3,0,.5,0,.8,0,.1,0,.2.1.3.2,0,.1.1.2.1.3l.5,3.1h1l.6-3.1c0-.1.2-.3.3-.3.2-.1.5-.2.7-.2.2,0,.5,0,.7.2.1,0,.2.2.3.4l.6,3.1h1l.6-3.1c0-.1,0-.2.1-.4,0-.1.2-.2.3-.3.1,0,.3,0,.4,0s.3,0,.4,0c.1,0,.3,0,.4.2,0,0,.2.2.2.3,0,0,0,.2,0,.3,0,.1,0,.2,0,.3l-.6,2.7h.2c.1,0,.3,0,.4,0,.1,0,.2.1.3.2.1.1.2.3.2.5,0,.2,0,.3-.2.5-.1,0-.2.1-.3.2-.1,0-.3,0-.4,0h-.5l-.6,2.9c0,.1,0,.2-.1.3,0,.1-.1.2-.2.3-.1,0-.2.1-.4.2-.2,0-.3,0-.5,0-.3,0-.6,0-.9-.2-.2-.1-.3-.3-.4-.6l-.6-2.9h-.7l-.6,2.9c0,.2-.2.4-.4.6-.3.2-.6.2-.9.2-.2,0-.4,0-.5,0-.1,0-.2,0-.3-.2,0,0-.2-.2-.2-.3,0-.1-.1-.2-.1-.3l-.6-2.9h-.5ZM25.3,29.4l.3-1.2h-.5l.2,1.2ZM27.3,26.8h.3v-1.1c-.1,0-.3,1.1-.3,1.1ZM29.6,29.4l.2-1.2h-.5l.3,1.2Z"/>
    </g>
  </g>
</svg>