<?xml version="1.0" encoding="UTF-8"?>
<svg xmlns="http://www.w3.org/2000/svg" version="1.1" viewBox="0 0 48 48">
  <defs>
    <style>
      .cls-1 {
        fill: #fff;
      }
    </style>
  </defs>
  <!-- Generator: Adobe Illustrator 28.6.0, SVG Export Plug-In . SVG Version: 1.2.0 Build 709)  -->
  <g>
    <g id="Layer_1">
      <path class="cls-1" d="M26,22.9c.3-.5.5-1,.6-1.6,0-.6,0-1.1-.3-1.6-.3-.5-.7-.9-1.1-1.2-.5-.3-1-.5-1.6-.5s-1.1.2-1.6.5c-.5.3-.9.7-1.1,1.2-.3.5-.4,1.1-.3,1.6,0,.6.2,1.1.6,1.6-.4.3-.8.6-1.1,1,0,.1-.1.2-.2.4,0,.1,0,.3,0,.4,0,.1,0,.3.1.4,0,.1.2.2.3.3.1,0,.2.1.4.2.1,0,.3,0,.4,0,.1,0,.3,0,.4-.1.1,0,.2-.2.3-.3.2-.3.6-.6.9-.7s.7-.3,1.1-.3c.4,0,.8,0,1.1.3.4.2.7.4.9.7,0,.1.2.2.3.3.1,0,.3,0,.4,0,.2,0,.4,0,.5-.2.2,0,.3-.2.4-.4,0-.2.1-.4,0-.5,0-.2,0-.4-.2-.5-.3-.4-.7-.7-1.2-1ZM23.5,22.1c-.2,0-.4,0-.6-.2-.2-.1-.3-.3-.4-.5,0-.2-.1-.4,0-.6,0-.2.1-.4.3-.6.1-.2.3-.3.5-.3s.4,0,.6,0c.2,0,.4.2.5.4.1.2.2.4.2.6,0,.1,0,.3,0,.4,0,.1-.1.3-.2.4-.1.1-.2.2-.4.2-.1,0-.3,0-.4,0ZM32,21.6c-.1-1.5-.7-2.8-1.5-4-.8-1.2-2-2.2-3.3-2.8-1.3-.6-2.8-.9-4.3-.8-1.5.1-2.9.6-4.1,1.4-1.1.7-1.9,1.6-2.6,2.7-.7,1.1-1.1,2.3-1.2,3.5-.1,1.2,0,2.5.5,3.7.4,1.2,1.1,2.2,2,3.1l5.3,5.3c0,0,.2.2.3.2.1,0,.3,0,.4,0s.3,0,.4,0c.1,0,.2-.1.3-.2l5.3-5.3c.9-.9,1.6-1.9,2-3.1.4-1.2.6-2.4.5-3.7ZM28.1,27l-4.6,4.6-4.6-4.6c-.7-.7-1.2-1.5-1.5-2.4-.3-.9-.4-1.9-.3-2.8,0-1,.4-1.9.9-2.7.5-.8,1.2-1.5,2-2.1,1.1-.7,2.3-1.1,3.6-1.1s2.5.4,3.6,1.1c.8.5,1.5,1.2,2,2.1.5.8.8,1.8.9,2.7,0,1,0,1.9-.3,2.8-.3.9-.8,1.7-1.5,2.4Z"/>
    </g>
  </g>
</svg>