<?xml version="1.0" encoding="UTF-8"?>
<svg xmlns="http://www.w3.org/2000/svg" version="1.1" viewBox="0 0 48 48">
  <defs>
    <style>
      .cls-1 {
        fill: #fff;
      }
    </style>
  </defs>
  <!-- Generator: Adobe Illustrator 28.6.0, SVG Export Plug-In . SVG Version: 1.2.0 Build 709)  -->
  <g>
    <g id="Layer_1">
      <path class="cls-1" d="M34,30.6l-1-3.7-3-11.2c0-.2-.2-.5-.4-.6-.2-.1-.5-.2-.7,0l-3.7,1c0,0-.2-.2-.3-.2-.1,0-.2,0-.4,0h-9.5c-.3,0-.5.1-.7.3s-.3.4-.3.7v15.4c0,.3.1.5.3.7s.4.3.7.3h9.5c.3,0,.5-.1.7-.3.2-.2.3-.4.3-.7v-7.7l2.1,7.9c0,.2.2.4.4.5.2.1.4.2.6.2,0,0,.2,0,.2,0l4.6-1.2c.1,0,.2,0,.3-.2,0,0,.2-.2.2-.3.1-.2.1-.5,0-.7ZM18.7,31.1h-2.9v-1.9h2.9v1.9ZM18.7,27.3h-2.9v-5.8h2.9v5.8ZM18.7,19.6h-2.9v-1.9h2.9v1.9ZM23.5,31.1h-2.9v-1.9h2.9v1.9ZM23.5,27.3h-2.9v-5.8h2.9v5.8ZM23.5,19.6h-2.9v-1.9h2.9v1.9ZM25.6,17.9l2.8-.8.5,1.9-2.8.8-.5-1.9ZM28.1,27.2l-1.5-5.6,2.8-.8,1.5,5.6-2.8.8ZM29.1,30.9l-.5-1.9,2.8-.8.5,1.9-2.8.8Z"/>
    </g>
  </g>
</svg>