<?xml version="1.0" encoding="UTF-8"?>
<svg xmlns="http://www.w3.org/2000/svg" version="1.1" viewBox="0 0 48 48">
  <defs>
    <style>
      .cls-1 {
        fill: #fff;
      }
    </style>
  </defs>
  <!-- Generator: Adobe Illustrator 28.6.0, SVG Export Plug-In . SVG Version: 1.2.0 Build 709)  -->
  <g>
    <g id="Layer_1">
      <path class="cls-1" d="M32.7,28.7l-2.4-2.4c0,0-.2-.2-.3-.2-.1,0-.3,0-.4,0s-.3,0-.4,0c-.1,0-.2.1-.3.2l-3.6,3.6c0,0-.2.2-.2.3,0,.1,0,.3,0,.4v2.4c0,.3.1.5.3.7s.4.3.7.3h2.4c.1,0,.3,0,.4,0,.1,0,.2-.1.3-.2l3.6-3.6c0,0,.2-.2.2-.3,0-.1,0-.3,0-.4s0-.3,0-.4c0-.1-.1-.2-.2-.3ZM28,32h-1v-1l2.6-2.6,1,1-2.6,2.6ZM22,32h-4c-.3,0-.5-.1-.7-.3-.2-.2-.3-.4-.3-.7v-14c0-.3.1-.5.3-.7.2-.2.4-.3.7-.3h5v3c0,.8.3,1.6.9,2.1.6.6,1.3.9,2.1.9h3v1c0,.3.1.5.3.7s.4.3.7.3.5-.1.7-.3c.2-.2.3-.4.3-.7v-2h0c0-.2,0-.2,0-.3h0c0-.2-.1-.3-.2-.4l-6-6c0,0-.2-.1-.3-.2,0,0,0,0,0,0h-.3c0-.1-6.1-.1-6.1-.1-.8,0-1.6.3-2.1.9s-.9,1.3-.9,2.1v14c0,.8.3,1.6.9,2.1s1.3.9,2.1.9h4c.3,0,.5-.1.7-.3s.3-.4.3-.7-.1-.5-.3-.7-.4-.3-.7-.3ZM25,17.4l2.6,2.6h-1.6c-.3,0-.5-.1-.7-.3s-.3-.4-.3-.7v-1.6ZM20,26h6c.3,0,.5-.1.7-.3.2-.2.3-.4.3-.7s-.1-.5-.3-.7c-.2-.2-.4-.3-.7-.3h-6c-.3,0-.5.1-.7.3s-.3.4-.3.7.1.5.3.7.4.3.7.3ZM20,22h1c.3,0,.5-.1.7-.3.2-.2.3-.4.3-.7s-.1-.5-.3-.7c-.2-.2-.4-.3-.7-.3h-1c-.3,0-.5.1-.7.3s-.3.4-.3.7.1.5.3.7.4.3.7.3ZM22,28h-2c-.3,0-.5.1-.7.3s-.3.4-.3.7.1.5.3.7.4.3.7.3h2c.3,0,.5-.1.7-.3s.3-.4.3-.7-.1-.5-.3-.7-.4-.3-.7-.3Z"/>
    </g>
  </g>
</svg>