<?xml version="1.0" encoding="UTF-8"?>
<svg xmlns="http://www.w3.org/2000/svg" version="1.1" viewBox="0 0 48 48">
  <defs>
    <style>
      .cls-1 {
        fill: #fff;
      }
    </style>
  </defs>
  <!-- Generator: Adobe Illustrator 28.6.0, SVG Export Plug-In . SVG Version: 1.2.0 Build 709)  -->
  <g>
    <g id="Layer_1">
      <path class="cls-1" d="M23.9,14c-2.6,0-5.1,1-6.9,2.8v-1.8c0-.3-.1-.5-.3-.7-.2-.2-.4-.3-.7-.3s-.5.1-.7.3c-.2.2-.3.4-.3.7v4.5c0,.3.1.5.3.7.2.2.4.3.7.3h4.5c.3,0,.5-.1.7-.3.2-.2.3-.4.3-.7s-.1-.5-.3-.7c-.2-.2-.4-.3-.7-.3h-2.4c.9-1,2.1-1.7,3.3-2.1,1.3-.4,2.6-.5,3.9-.3s2.5.8,3.6,1.6c1,.8,1.9,1.9,2.4,3.1.5,1.2.7,2.5.6,3.9-.1,1.3-.6,2.6-1.3,3.7-.7,1.1-1.7,2-2.9,2.6-1.2.6-2.5,1-3.8.9-.3,0-.5.1-.7.3-.2.2-.3.4-.3.7s.1.5.3.7c.2.2.4.3.7.3,2.7,0,5.2-1.1,7.1-2.9,1.9-1.9,2.9-4.4,2.9-7.1s-1.1-5.2-2.9-7.1c-1.9-1.9-4.4-2.9-7.1-2.9ZM23.9,20c-.3,0-.5.1-.7.3-.2.2-.3.4-.3.7v3c0,.3.1.5.3.7.2.2.4.3.7.3h2c.3,0,.5-.1.7-.3.2-.2.3-.4.3-.7s-.1-.5-.3-.7c-.2-.2-.4-.3-.7-.3h-1v-2c0-.3-.1-.5-.3-.7-.2-.2-.4-.3-.7-.3Z"/>
    </g>
  </g>
</svg>