<?xml version="1.0" encoding="UTF-8"?>
<svg xmlns="http://www.w3.org/2000/svg" version="1.1" viewBox="0 0 48 48">
  <defs>
    <style>
      .cls-1 {
        fill: #fff;
      }
    </style>
  </defs>
  <!-- Generator: Adobe Illustrator 28.6.0, SVG Export Plug-In . SVG Version: 1.2.0 Build 709)  -->
  <g>
    <g id="Layer_1">
      <path class="cls-1" d="M19.5,28c.4,0,.8-.2,1.1-.4s.4-.7.4-1.1c0,0,0-.1,0-.1l2.8-2.8h.5l1.6,1.6h0c0,.5.2.9.4,1.1.3.3.7.4,1.1.4s.8-.2,1.1-.4.4-.7.4-1.1h0c0,0,3.6-3.8,3.6-3.8.3,0,.6,0,.8-.3.2-.2.4-.4.6-.7.1-.3.1-.6,0-.9,0-.3-.2-.6-.4-.8-.2-.2-.5-.4-.8-.4-.3,0-.6,0-.9,0-.3.1-.5.3-.7.6-.2.2-.3.5-.3.8,0,0,0,.1,0,.1l-3.6,3.6h-.2l-1.7-1.8c0-.4-.2-.8-.4-1.1s-.7-.4-1.1-.4-.8.2-1.1.4-.4.7-.4,1.1l-3,3c-.4,0-.8.2-1.1.4s-.4.7-.4,1.1.2.8.4,1.1.7.4,1.1.4ZM33,32h-17V15c0-.3-.1-.5-.3-.7s-.4-.3-.7-.3-.5.1-.7.3-.3.4-.3.7v18c0,.3.1.5.3.7s.4.3.7.3h18c.3,0,.5-.1.7-.3s.3-.4.3-.7-.1-.5-.3-.7-.4-.3-.7-.3Z"/>
    </g>
  </g>
</svg>