<?xml version="1.0" encoding="UTF-8"?>
<svg xmlns="http://www.w3.org/2000/svg" version="1.1" viewBox="0 0 48 48">
  <defs>
    <style>
      .cls-1 {
        fill: #fff;
      }
    </style>
  </defs>
  <!-- Generator: Adobe Illustrator 28.6.0, SVG Export Plug-In . SVG Version: 1.2.0 Build 709)  -->
  <g>
    <g id="Layer_1">
      <path class="cls-1" d="M31.9,27.5h-4.5c-.3,0-.5.1-.7.3s-.3.4-.3.7.1.5.3.7.4.3.7.3h2.4c-1.1,1.2-2.5,1.9-4.1,2.3-1.6.3-3.2.2-4.7-.4-1.5-.6-2.8-1.6-3.6-2.9-.9-1.3-1.4-2.9-1.4-4.5,0-.3-.1-.5-.3-.7s-.4-.3-.7-.3-.5.1-.7.3-.3.4-.3.7c0,2,.6,3.9,1.7,5.5,1.1,1.6,2.6,2.9,4.4,3.7,1.8.8,3.8,1,5.7.7,1.9-.3,3.7-1.2,5.1-2.6v1.8c0,.3.1.5.3.7s.4.3.7.3.5-.1.7-.3.3-.4.3-.7v-4.5c0-.3-.1-.5-.3-.7-.2-.2-.4-.3-.7-.3ZM24,14c-2.6,0-5,1-6.9,2.8v-1.8c0-.3-.1-.5-.3-.7s-.4-.3-.7-.3-.5.1-.7.3-.3.4-.3.7v4.5c0,.3.1.5.3.7s.4.3.7.3h4.5c.3,0,.5-.1.7-.3s.3-.4.3-.7-.1-.5-.3-.7-.4-.3-.7-.3h-2.4c1.1-1.2,2.5-1.9,4.1-2.3,1.6-.3,3.2-.2,4.7.4,1.5.6,2.8,1.6,3.6,2.9.9,1.3,1.4,2.9,1.4,4.5,0,.3.1.5.3.7s.4.3.7.3.5-.1.7-.3.3-.4.3-.7c0-1.3-.3-2.6-.8-3.8-.5-1.2-1.2-2.3-2.2-3.2s-2-1.7-3.2-2.2c-1.2-.5-2.5-.8-3.8-.8Z"/>
    </g>
  </g>
</svg>