<?xml version="1.0" encoding="UTF-8"?>
<svg xmlns="http://www.w3.org/2000/svg" version="1.1" viewBox="0 0 48 48">
  <defs>
    <style>
      .cls-1 {
        fill: #fff;
      }
    </style>
  </defs>
  <!-- Generator: Adobe Illustrator 28.6.0, SVG Export Plug-In . SVG Version: 1.2.0 Build 709)  -->
  <g>
    <g id="Layer_1">
      <path class="cls-1" d="M24,14c-2,0-3.9.6-5.6,1.7-1.6,1.1-2.9,2.7-3.7,4.5-.8,1.8-1,3.8-.6,5.8.4,1.9,1.3,3.7,2.7,5.1,1.4,1.4,3.2,2.4,5.1,2.7,1.9.4,4,.2,5.8-.6,1.8-.8,3.4-2,4.5-3.7,1.1-1.6,1.7-3.6,1.7-5.6s-.3-2.6-.8-3.8c-.5-1.2-1.2-2.3-2.2-3.2s-2-1.7-3.2-2.2c-1.2-.5-2.5-.8-3.8-.8ZM25,31.9v-.9c0-.3-.1-.5-.3-.7s-.4-.3-.7-.3-.5.1-.7.3-.3.4-.3.7v.9c-1.8-.2-3.4-1-4.7-2.3s-2.1-2.9-2.3-4.7h.9c.3,0,.5-.1.7-.3s.3-.4.3-.7-.1-.5-.3-.7-.4-.3-.7-.3h-.9c.2-1.8,1-3.4,2.3-4.7s2.9-2.1,4.7-2.3v.9c0,.3.1.5.3.7s.4.3.7.3.5-.1.7-.3.3-.4.3-.7v-.9c1.8.2,3.4,1,4.7,2.3s2.1,2.9,2.3,4.7h-.9c-.3,0-.5.1-.7.3s-.3.4-.3.7.1.5.3.7.4.3.7.3h.9c-.2,1.8-1,3.4-2.3,4.7s-2.9,2.1-4.7,2.3ZM27.1,19.5l-5,2.1c-.2.1-.4.3-.5.5l-2.1,5c0,.2-.1.4,0,.6,0,.2.1.4.3.5.2.2.4.3.7.3.1,0,.3,0,.4,0l5-2.1c.2-.1.4-.3.5-.5l2.1-5c0-.2,0-.4,0-.6,0-.2-.1-.4-.3-.5s-.3-.2-.5-.3c-.2,0-.4,0-.6,0ZM24.6,24.6l-2.3,1,1-2.3,2.3-1-1,2.3Z"/>
    </g>
  </g>
</svg>