<?xml version="1.0" encoding="UTF-8"?>
<svg xmlns="http://www.w3.org/2000/svg" version="1.1" viewBox="0 0 48 48">
  <defs>
    <style>
      .cls-1 {
        fill: #fff;
      }
    </style>
  </defs>
  <!-- Generator: Adobe Illustrator 28.6.0, SVG Export Plug-In . SVG Version: 1.2.0 Build 709)  -->
  <g>
    <g id="Layer_1">
      <path class="cls-1" d="M33,24h-3v-9c0-.2,0-.3-.1-.5,0-.2-.2-.3-.4-.4-.2,0-.3-.1-.5-.1s-.3,0-.5.1l-3,1.7-3-1.7c-.2,0-.3-.1-.5-.1s-.3,0-.5.1l-3,1.7-3-1.7c-.2,0-.3-.1-.5-.1s-.3,0-.5.1c-.2,0-.3.2-.4.4,0,.2-.1.3-.1.5v16c0,.8.3,1.6.9,2.1.6.6,1.3.9,2.1.9h14c.8,0,1.6-.3,2.1-.9.6-.6.9-1.3.9-2.1v-6c0-.3-.1-.5-.3-.7-.2-.2-.4-.3-.7-.3ZM17,32c-.3,0-.5-.1-.7-.3-.2-.2-.3-.4-.3-.7v-14.3l2,1.1c.2,0,.3.1.5.1s.3,0,.5-.1l3-1.7,3,1.7c.2,0,.3.1.5.1s.3,0,.5-.1l2-1.1v14.3c0,.3,0,.7.2,1h-11.2ZM32,31c0,.3-.1.5-.3.7s-.4.3-.7.3-.5-.1-.7-.3c-.2-.2-.3-.4-.3-.7v-5h2v5Z"/>
      <path class="cls-1" d="M18.7,25.5c-.3,0-.4,0-.5-.1-.1,0-.2-.2-.2-.3s0-.2.1-.3c0,0,.3-.1.6-.1h0l-.4-1.8c0,0,0-.1,0-.2,0,0,0-.2,0-.2,0,0,0-.1.2-.2,0,0,.2,0,.3-.1.2,0,.4,0,.6,0,.2,0,.3.2.3.4l.4,2.1h.7l.5-2.1c0,0,0-.1.2-.2.1,0,.3-.1.5-.1s.4,0,.5.1c.1,0,.2.2.2.2l.5,2.1h.7l.4-2.1c0-.2.1-.3.3-.4.2,0,.3,0,.6,0,.1,0,.2,0,.3.1,0,0,.1.1.2.2,0,0,0,.1,0,.2,0,0,0,.1,0,.2l-.4,1.8h.1c.3,0,.4,0,.5.1,0,0,.1.2.1.3s0,.2-.1.3c0,0-.3.1-.5.1h-.3l-.5,2c0,0,0,.1-.1.2,0,0,0,.1-.2.2,0,0-.2,0-.3.1-.1,0-.2,0-.4,0-.3,0-.5,0-.7-.1-.1,0-.3-.2-.3-.4l-.4-2h-.5l-.4,2c0,.2-.2.3-.3.4-.1,0-.4.1-.7.1s-.3,0-.4,0c-.1,0-.2,0-.2-.1,0,0-.1-.1-.2-.2,0,0,0-.1,0-.2l-.5-2h-.3ZM20.4,26.3l.2-.8h-.4l.2.8ZM23.6,26.3l.2-.8h-.3l.2.8ZM21.9,24.5h.2v-.7c0,0-.2.7-.2.7Z"/>
    </g>
  </g>
</svg>