<?xml version="1.0" encoding="UTF-8"?>
<svg xmlns="http://www.w3.org/2000/svg" version="1.1" viewBox="0 0 48 48">
  <defs>
    <style>
      .cls-1 {
        fill: #fff;
      }
    </style>
  </defs>
  <!-- Generator: Adobe Illustrator 28.6.0, SVG Export Plug-In . SVG Version: 1.2.0 Build 709)  -->
  <g>
    <g id="Layer_1">
      <path class="cls-1" d="M26.8,24.3c.6-.7,1-1.6,1-2.5,0-1-.4-2-1.1-2.7s-1.7-1.1-2.7-1.1-2,.4-2.7,1.1-1.1,1.7-1.1,2.7c0,.9.4,1.8,1,2.5-.9.4-1.6,1.1-2.2,1.9-.6.8-.9,1.7-1,2.7,0,.3,0,.5.2.7.2.2.4.3.7.4s.5,0,.7-.2c.2-.2.3-.4.4-.7.1-1,.6-1.9,1.3-2.5.7-.6,1.7-1,2.6-1s1.9.4,2.6,1c.7.6,1.2,1.5,1.3,2.5,0,.3.2.5.4.7.2.2.5.2.7.2h.1c.3,0,.5-.2.7-.4.2-.2.2-.5.2-.7-.1-1-.5-1.9-1-2.7-.6-.8-1.3-1.5-2.2-1.9ZM24,23.6c-.4,0-.7-.1-1-.3-.3-.2-.5-.5-.7-.8-.1-.3-.2-.7-.1-1,0-.3.2-.7.5-.9s.6-.4.9-.5c.3,0,.7,0,1,.1.3.1.6.4.8.7.2.3.3.6.3,1s-.2.9-.5,1.3-.8.5-1.3.5ZM31,14h-14c-.8,0-1.6.3-2.1.9s-.9,1.3-.9,2.1v14c0,.8.3,1.6.9,2.1s1.3.9,2.1.9h14c.8,0,1.6-.3,2.1-.9s.9-1.3.9-2.1v-14c0-.8-.3-1.6-.9-2.1s-1.3-.9-2.1-.9ZM32,31c0,.3-.1.5-.3.7s-.4.3-.7.3h-14c-.3,0-.5-.1-.7-.3s-.3-.4-.3-.7v-14c0-.3.1-.5.3-.7s.4-.3.7-.3h14c.3,0,.5.1.7.3s.3.4.3.7v14Z"/>
      <circle class="cls-1" cx="24" cy="25" r="1"/>
      <path class="cls-1" d="M24,26h0c.6,0,1,.4,1,1v1c0,.6-.4,1-1,1h0c-.6,0-1-.4-1-1v-1c0-.6.4-1,1-1Z"/>
    </g>
  </g>
</svg>