<?xml version="1.0" encoding="UTF-8"?>
<svg xmlns="http://www.w3.org/2000/svg" version="1.1" viewBox="0 0 48 48">
  <defs>
    <style>
      .cls-1 {
        fill: #fff;
      }
    </style>
  </defs>
  <!-- Generator: Adobe Illustrator 28.6.0, SVG Export Plug-In . SVG Version: 1.2.0 Build 709)  -->
  <g>
    <g id="Layer_1">
      <path class="cls-1" d="M34,14H14c-.3,0-.5.1-.7.3s-.3.4-.3.7v8c0,.3.1.5.3.7s.4.3.7.3h3v9c0,.3.1.5.3.7s.4.3.7.3h12c.3,0,.5-.1.7-.3s.3-.4.3-.7v-9h3c.3,0,.5-.1.7-.3s.3-.4.3-.7v-8c0-.3-.1-.5-.3-.7s-.4-.3-.7-.3ZM19,32v-2c.5,0,1,.2,1.4.6.4.4.6.9.6,1.4h-2ZM29,32h-2c0-.5.2-1,.6-1.4.4-.4.9-.6,1.4-.6v2ZM29,28c-1.1,0-2.1.4-2.8,1.2-.8.8-1.2,1.8-1.2,2.8h-2c0-1.1-.4-2.1-1.2-2.8-.8-.8-1.8-1.2-2.8-1.2v-8h10v8ZM33,22h-2v-3c0-.3-.1-.5-.3-.7s-.4-.3-.7-.3h-12c-.3,0-.5.1-.7.3s-.3.4-.3.7v3h-2v-6h18v6ZM24,27c.6,0,1.2-.2,1.7-.5.5-.3.9-.8,1.1-1.3.2-.5.3-1.2.2-1.7-.1-.6-.4-1.1-.8-1.5-.4-.4-1-.7-1.5-.8-.6-.1-1.2,0-1.7.2-.5.2-1,.6-1.3,1.1-.3.5-.5,1.1-.5,1.7s.3,1.6.9,2.1c.6.6,1.3.9,2.1.9ZM24,23c.2,0,.4,0,.6.2.2.1.3.3.4.4,0,.2,0,.4,0,.6,0,.2-.1.4-.3.5-.1.1-.3.2-.5.3-.2,0-.4,0-.6,0-.2,0-.3-.2-.4-.4-.1-.2-.2-.4-.2-.6s.1-.5.3-.7.4-.3.7-.3Z"/>
    </g>
  </g>
</svg>