<?xml version="1.0" encoding="UTF-8"?>
<svg xmlns="http://www.w3.org/2000/svg" version="1.1" viewBox="0 0 76 65">
  <defs>
    <style>
      .cls-1 {
        fill: #ed1c24;
      }
    </style>
  </defs>
  <!-- Generator: Adobe Illustrator 28.6.0, SVG Export Plug-In . SVG Version: 1.2.0 Build 709)  -->
  <g>
    <g id="Layer_1">
      <g id="Layer_1-2" data-name="Layer_1">
        <path id="path20" class="cls-1" d="M69.2,2.7c4.6,1.9,6.1,5.9,4.9,9.9-3.1,11.1-16.3,13.8-16.3,13.8,1.4.7,7.4,1.7,8.5,7,1.1,5.3-.4,12-9.9,19.1-9.5,7-23.3,11.1-29.4,11.1s-18.8-1.2-23-7.9C-.2,48.9-.2,38.7,11.4,24.9,23.2,11.1,42.6,4.8,42.6,4.8c14.5-4.5,23-3.6,26.6-2.1M50,6.6c-4.8-1.4-13.4,3.2-21.9,19.1-8.5,15.9-8.5,25.1-7,31.1,1.4,6,7.8,4.9,10.6,3.6,2.8-1.4,11.4-6.9,13.2-16.3,2.1-11-5.1-14.1-5.1-14.1,6.7-1.7,12.3-9.9,12.3-9.9,4-6.8,2.4-12-2.1-13.5h0Z"/>
      </g>
    </g>
  </g>
</svg>